<svg width="157" height="46" viewBox="0 0 157 46" fill="none" xmlns="http://www.w3.org/2000/svg">
<path fill-rule="evenodd" clip-rule="evenodd" d="M17.618 5.57954C17.6209 7.39202 18.0895 9.17285 18.9783 10.7485V0.75518C18.1338 2.22422 17.6663 3.88241 17.618 5.57954ZM15.4358 12.1269C15.6121 11.9542 15.8265 11.8261 16.0613 11.7529V14.0185C16.6142 13.344 17.8435 13.058 19.0438 12.992V12.7134H20.8914V10.9171H21.7716V10.008C21.7716 9.04017 21.8661 8.30698 22.3244 7.88173C22.85 7.49669 23.4953 7.31457 24.1429 7.36851C23.6288 7.55635 23.1902 7.90923 22.8945 8.37288C22.5988 8.83652 22.4624 9.38525 22.5062 9.93465V12.1342C22.3288 11.9624 22.1111 11.8388 21.8734 11.7749V14.0332C21.4806 13.5199 20.615 13.1387 19.0438 13.0214V14.6197H14.8466V12.8161C14.8853 10.9437 14.5127 9.08597 13.7554 7.37584C14.2658 7.56108 14.7024 7.90892 14.999 8.36668C15.2957 8.82443 15.4362 9.36716 15.3994 9.91266L15.4358 12.1269ZM13.159 6.99458C15.5085 6.99458 16.6724 7.36851 16.5778 10.5505H17.4507V12.3395H20.4986V10.5139H21.3715C21.3133 7.63978 21.9461 6.91393 24.7831 6.95792C23.7541 8.9566 23.2815 11.1989 23.4155 13.4466V15.0156H14.461V13.2633C14.5664 11.0847 14.105 8.91611 13.1226 6.97259L13.159 6.99458ZM2.13133 28.1983C1.77489 28.1983 1.2657 28.4622 1.27298 28.9315C1.28025 29.4007 1.75307 29.5767 2.07314 29.5767C2.3932 29.5767 2.49504 29.2467 2.50959 28.8948C2.52413 28.5429 2.48049 28.1836 2.13133 28.1983ZM2.85874 28.8581C2.85374 28.7261 2.87561 28.5945 2.923 28.4713C2.9704 28.3481 3.04231 28.236 3.13431 28.1419C3.2263 28.0478 3.33644 27.9737 3.45794 27.9241C3.57944 27.8746 3.70972 27.8506 3.84076 27.8537C4.33601 27.8841 4.8062 28.0836 5.17381 28.4195C5.54142 28.7554 5.7845 29.2075 5.86297 29.7013C5.91692 29.9002 5.92443 30.1089 5.8849 30.3112C5.84537 30.5134 5.75988 30.7037 5.63514 30.8671C5.51041 31.0305 5.34981 31.1625 5.16595 31.2528C4.98209 31.3431 4.77997 31.3893 4.57545 31.3876C4.16082 31.3876 3.57889 31.2703 3.51342 30.7058C3.44795 30.1412 3.81893 30.0386 4.0808 29.9066C4.29723 29.8251 4.52627 29.7829 4.7573 29.782C4.80822 29.782 4.99735 29.782 4.94643 29.5473C4.94982 29.5128 4.94207 29.4781 4.92432 29.4483C4.90657 29.4186 4.87978 29.3954 4.84792 29.3822C4.81606 29.369 4.78083 29.3666 4.74747 29.3752C4.71411 29.3838 4.68439 29.403 4.66274 29.43C4.57926 29.5285 4.47701 29.6091 4.36206 29.6671C4.2471 29.725 4.12178 29.7591 3.99351 29.7673C3.72751 29.7572 3.47155 29.6623 3.26242 29.4963C3.0533 29.3303 2.90178 29.1017 2.82965 28.8435L2.85874 28.8581ZM2.03676 29.8993C1.77466 29.9771 1.52836 30.1012 1.30935 30.2659C1.18552 30.3834 1.09981 30.5359 1.06346 30.7033C1.02711 30.8708 1.04183 31.0454 1.10567 31.2043C1.19711 31.3468 1.33798 31.4498 1.50074 31.4932C1.66351 31.5366 1.83648 31.5173 1.98585 31.439C2.26597 31.3298 2.51559 31.1536 2.71326 30.9257C2.82588 30.8204 2.90003 30.68 2.92379 30.527C2.94754 30.3741 2.9195 30.2175 2.8442 30.0826C2.74405 29.9729 2.61312 29.8966 2.46887 29.8639C2.32461 29.8311 2.17388 29.8435 2.03676 29.8993ZM2.48049 31.4316C2.28633 31.5427 2.10358 31.6728 1.93493 31.8202C1.69488 32.0108 1.4912 32.3774 1.68761 32.634C1.88401 32.8907 2.30591 32.766 2.53141 32.634C2.72773 32.525 2.90273 32.381 3.04787 32.2088C3.15181 32.1219 3.22298 32.0017 3.24946 31.8682C3.27594 31.7347 3.25614 31.5961 3.19336 31.4756C2.97513 31.2557 2.69144 31.329 2.48049 31.4316ZM10.373 29.2321H8.8381C8.15089 29.209 7.46867 29.3576 6.85226 29.6646C6.61876 29.8073 6.42746 30.0103 6.29825 30.2528C6.16904 30.4952 6.10665 30.7681 6.11757 31.043C6.88794 30.8926 7.61132 30.5582 8.22707 30.0679C8.30709 30.0092 8.43075 29.8406 8.55441 29.7966C8.67807 29.7526 8.85993 29.7966 8.88175 29.7966C9.01996 30.0386 8.88175 30.0752 8.78719 30.1266C8.15692 30.3861 7.54663 30.6924 6.96137 31.043C6.37163 31.4471 5.73376 31.7747 5.06282 32.0182C4.61909 32.1428 4.20446 31.7762 3.78984 31.7762C3.73366 32.2227 3.60333 32.6564 3.40431 33.0593C3.70812 33.197 4.04963 33.2255 4.37177 33.1399C5.29233 32.6396 6.29128 32.3024 7.32508 32.1428C9.47096 32.0255 10.2347 32.5754 11.224 32.7074C11.1754 32.2078 11.1706 31.7048 11.2095 31.2043C10.9258 31.5865 10.5107 31.848 10.0456 31.9375C10.4821 31.043 10.2857 29.6207 10.3439 29.2541L10.373 29.2321ZM5.8848 32.8467C6.11381 32.7404 6.36052 32.6782 6.61221 32.6634C6.45218 33.1253 6.25578 33.4405 5.84115 33.5285C5.77838 33.3123 5.78347 33.0819 5.8557 32.8687L5.8848 32.8467ZM7.13595 32.6634C7.40462 32.6068 7.68199 32.6068 7.95066 32.6634C7.90483 32.8805 7.80454 33.0821 7.65936 33.249C7.51417 33.4158 7.32895 33.5424 7.1214 33.6165C7.02496 33.3145 7.0199 32.9903 7.10685 32.6854L7.13595 32.6634ZM21.0441 18.7329C21.1096 18.0363 20.4331 17.7137 19.7348 17.6991C19.0365 17.6844 17.6835 18.2856 17.749 19.1068C17.745 19.3778 17.8476 19.6393 18.0343 19.8344C18.221 20.0294 18.4767 20.1421 18.7455 20.1479C18.8401 20.1479 18.9128 20.2432 18.7455 20.3239C18.1563 20.6245 17.7489 21.0571 17.7999 21.5923C17.8879 21.9948 18.1128 22.3536 18.4356 22.6067C18.7584 22.8597 19.1588 22.9911 19.5675 22.978C20.615 22.912 21.0223 22.2448 21.5388 22.1935C22.0553 22.1422 22.1789 22.3401 22.5935 22.2815C22.7536 22.2815 23.0082 22.1129 23.0082 21.9442C23.0082 21.5923 22.6008 21.6216 22.3389 21.6363C21.9243 21.6363 21.1896 21.8489 20.8186 21.6363C20.2876 21.365 20.5204 20.7345 19.8876 20.4265C19.6984 20.3532 19.7493 20.1699 19.8876 20.1626C20.1247 20.1154 20.3425 19.998 20.5131 19.8253C20.785 19.5431 20.9607 19.181 21.015 18.7915L21.0441 18.7329ZM13.77 15.8808C13.7073 16.2427 13.7286 16.6144 13.832 16.9667C13.9355 17.319 14.1184 17.6424 14.3665 17.9117C14.412 17.9687 14.4709 18.0133 14.5378 18.0416C14.6048 18.0699 14.6776 18.0809 14.7499 18.0736C14.8221 18.0663 14.8914 18.041 14.9514 17.9999C15.0115 17.9588 15.0605 17.9033 15.0939 17.8384C15.1714 17.6686 15.1891 17.4773 15.1441 17.296C15.0992 17.1147 14.9942 16.9543 14.8466 16.8412C14.4047 16.6423 14.0213 16.3317 13.7336 15.9394L13.77 15.8808ZM14.5629 16.24C14.8985 16.5575 15.3393 16.7378 15.7995 16.7459C16.047 16.728 16.2955 16.7656 16.5269 16.8559C16.6287 16.9292 16.5996 17.0685 16.6069 17.1639C16.6069 17.5964 16.1486 18.117 15.6904 18.5129C16.5851 18.5642 17.7053 18.205 17.8217 17.3471C17.9235 16.614 17.0943 16.2107 16.5342 16.218L14.5629 16.24ZM18.0981 17.8384C18.407 17.5717 18.7655 17.3695 19.1526 17.2437C19.5397 17.1178 19.9478 17.0707 20.3531 17.1052C20.2052 16.9208 20.014 16.7766 19.7967 16.6857C19.5795 16.5948 19.3432 16.56 19.1092 16.5846C18.822 16.6684 18.5673 16.8393 18.3799 17.0741C18.1924 17.309 18.0814 17.5963 18.0617 17.897L18.0981 17.8384ZM21.1169 19.7593C21.1028 19.6047 21.1252 19.4489 21.1824 19.3048C21.2333 19.1874 21.3642 19.0701 21.437 18.9455C21.5402 18.6981 21.7013 18.4795 21.9065 18.3085C22.1117 18.1374 22.3549 18.0189 22.6154 17.963C23.2337 17.9117 23.8301 18.139 23.8374 18.9015C23.834 19.1229 23.7472 19.3348 23.5945 19.4941C23.4419 19.6534 23.2349 19.7482 23.0154 19.7593H21.1169ZM20.9496 17.1272H22.9354C23.0073 17.1384 23.0749 17.1688 23.1312 17.2152C23.1874 17.2616 23.2304 17.3224 23.2555 17.3911C23.3282 17.7064 23.2555 17.7431 23.0154 17.7431H20.8332C20.484 17.7431 20.5059 17.5304 20.5422 17.4058C20.5782 17.3384 20.6318 17.2823 20.6972 17.2435C20.7626 17.2047 20.8373 17.1848 20.9132 17.1858L20.9496 17.1272ZM23.9902 29.1734C23.8404 27.7767 23.1838 26.485 22.1466 25.5464C21.1094 24.6079 19.7647 24.0888 18.3709 24.0888C16.9771 24.0888 15.6324 24.6079 14.5952 25.5464C13.558 26.485 12.9014 27.7767 12.7516 29.1734H23.9902ZM21.1751 22.934C21.1368 23.1096 21.1479 23.2925 21.207 23.4622C21.2661 23.6318 21.3709 23.7815 21.5097 23.8945C21.692 24.0103 21.9054 24.0667 22.1207 24.0558C22.3395 24.0562 22.5573 24.0266 22.7681 23.9678C22.6292 24.2044 22.4211 24.3919 22.1725 24.5047C21.9238 24.6176 21.6466 24.6503 21.3788 24.5983C20.7876 24.5329 20.2336 24.2756 19.8003 23.8652C19.93 23.7037 20.0684 23.5495 20.2149 23.4033C20.4352 23.7016 20.7472 23.9181 21.1023 24.0191C20.8622 23.7792 20.6977 23.4731 20.6295 23.1393C20.797 23.0371 20.9821 22.9674 21.1751 22.934ZM13.5227 18.3076C13.1311 18.4348 12.7947 18.6937 12.5697 19.0408C12.3297 19.3341 12.1188 19.774 11.8423 20.1772C12.3266 20.2564 12.8219 20.2339 13.2972 20.1113C13.93 19.8766 14.1555 19.2608 15.0793 18.6449C14.9065 18.5736 14.7203 18.5411 14.5338 18.5496C14.2574 18.6156 14.0028 18.9748 13.7554 19.1581C13.5971 19.2875 13.3991 19.3574 13.1953 19.3561C13.4288 18.9194 13.7927 18.568 14.2355 18.3516C14.0081 18.263 13.7591 18.2476 13.5227 18.3076ZM15.7049 18.9308C15.2651 18.999 14.8564 19.2011 14.5338 19.51C14.2283 19.7373 13.9082 20.2432 13.4936 20.4485C14.0984 20.7769 14.7938 20.8954 15.4721 20.7858C15.787 20.7168 16.0781 20.565 16.3159 20.3459C16.6663 19.9978 16.992 19.6254 17.2907 19.2314C17.0913 19.2559 16.8892 19.2435 16.6942 19.1948C16.4632 19.3026 16.2458 19.438 16.0468 19.598C15.8865 19.7656 15.7112 19.9177 15.5231 20.0526C15.3323 20.1429 15.1163 20.1637 14.912 20.1113C15.2539 19.862 15.3776 19.3781 16.2941 19.0848C16.0853 19.0571 15.8803 19.0054 15.6831 18.9308H15.7049ZM26.5434 17.4645C26.8387 17.4005 27.1454 17.4148 27.4335 17.5061C27.7217 17.5973 27.9814 17.7623 28.1874 17.985C28.8129 18.7182 28.7257 19.3781 29.0239 20.1186C29.1987 20.5751 29.4897 20.9772 29.8677 21.2843C29.2965 21.2964 28.7405 21.0983 28.3038 20.7271C27.8154 20.0826 27.4458 19.355 27.2126 18.5789C27.0466 18.1706 26.8129 17.7938 26.5216 17.4645H26.5434ZM28.6529 17.6478C28.9366 17.5912 29.2302 17.6139 29.502 17.7134C29.7739 17.8129 30.0135 17.9854 30.195 18.2123C30.646 18.7622 30.5951 19.4367 30.9225 20.1699C31.0603 20.6142 31.3453 20.9973 31.7299 21.255C31.4266 21.3017 31.1169 21.2834 30.8211 21.2012C30.5253 21.1191 30.25 20.9751 30.0132 20.7785C29.4676 20.1406 29.5258 19.576 29.2203 18.7769C29.0582 18.3899 28.8736 18.0128 28.6675 17.6478H28.6529ZM29.9695 17.5671C30.5515 17.3105 31.2061 17.9264 31.3807 18.2343C31.4839 17.982 31.6687 17.7722 31.9051 17.6391C32.1414 17.506 32.4155 17.4574 32.6828 17.5011C32.3839 17.6998 32.1534 17.9869 32.0231 18.3231C31.8929 18.6592 31.8692 19.0278 31.9554 19.3781C32.2391 20.4265 33.4102 20.6611 34.1376 20.6611C34.1376 20.8738 34.1376 21.0277 34.1376 21.233H33.112C32.6193 21.2384 32.1419 21.0603 31.7714 20.7329C31.401 20.4055 31.1634 19.9518 31.1043 19.4587C31.0578 19.0288 30.9267 18.6126 30.7188 18.2343C30.5413 17.9327 30.2704 17.6982 29.9477 17.5671H29.9695ZM23.2991 24.0705H31.0243C30.9304 24.391 30.727 24.6677 30.45 24.8516C30.1731 25.0355 29.8405 25.1146 29.5113 25.0749H22.6808C22.9607 24.7963 23.1659 24.4507 23.2773 24.0705H23.2991ZM14.3228 35.9187C13.159 37.7004 12.1042 39.5406 11.0858 41.4029C11.6799 41.1117 12.2951 40.8666 12.9262 40.6698C13.1153 40.6258 13.0498 40.9704 12.9262 41.0217L12.3079 41.1976C11.8918 41.3521 11.4861 41.5333 11.0931 41.7402C10.6894 41.9498 10.3192 42.2192 9.9947 42.5394C9.75998 42.7505 9.50114 42.9326 9.22364 43.0819C9.52974 43.3667 9.92747 43.5307 10.3439 43.5438C10.3628 43.5514 10.379 43.5646 10.3904 43.5816C10.4018 43.5986 10.4079 43.6186 10.4079 43.6391C10.4079 43.6597 10.4018 43.6797 10.3904 43.6967C10.379 43.7137 10.3628 43.7268 10.3439 43.7345C10.173 43.7638 10.0067 43.8156 9.84921 43.8884C9.76513 43.9436 9.69329 44.0158 9.63821 44.1003C9.58313 44.1848 9.546 44.28 9.52915 44.3797C9.50875 44.4745 9.51114 44.5728 9.5361 44.6665C9.56106 44.7602 9.60788 44.8465 9.67265 44.9182C9.73742 44.99 9.81827 45.0451 9.90845 45.0789C9.99864 45.1128 10.0955 45.1244 10.1911 45.1129C10.8096 44.9965 11.4391 44.9497 12.0678 44.9735C12.7952 45.0249 12.7952 44.3357 12.7952 44.0791C12.5843 42.2168 13.8936 40.4131 15.7777 38.5508C16.5051 37.8177 17.6689 37.1505 18.1854 36.4173C17.6268 36.3827 17.0816 36.2303 16.5851 35.97C16.185 36.8279 15.9304 37.5684 15.0793 37.825C15.0847 37.1142 14.813 36.4297 14.3228 35.9187ZM9.55825 43.6538C9.23176 43.5274 8.88108 43.4773 8.53259 43.5072C8.33188 43.525 8.14158 43.605 7.98787 43.7363C7.83415 43.8676 7.72459 44.0437 7.67424 44.2404C7.65657 44.3317 7.65967 44.4259 7.6833 44.5159C7.70694 44.6058 7.7505 44.6892 7.8107 44.7598C7.87091 44.8304 7.9462 44.8862 8.03091 44.9233C8.11563 44.9603 8.20756 44.9775 8.29982 44.9735C8.44591 44.9827 8.59015 44.9367 8.70444 44.8446C8.81874 44.7524 8.89491 44.6206 8.91812 44.475C8.95466 44.2976 9.03146 44.1311 9.14252 43.9886C9.25358 43.8462 9.39588 43.7316 9.55825 43.6538ZM7.69606 43.5952C7.46987 43.5328 7.23121 43.5328 7.00502 43.5952C6.83654 43.6405 6.68457 43.7338 6.5672 43.8638C6.44984 43.9937 6.37204 44.155 6.34307 44.3283C6.3231 44.3943 6.31829 44.464 6.32902 44.5322C6.33974 44.6003 6.36572 44.6651 6.40497 44.7216C6.44423 44.7782 6.49573 44.8249 6.55559 44.8584C6.61544 44.8919 6.68207 44.9112 6.75042 44.9149C7.01229 44.9149 7.11413 44.7463 7.19414 44.453C7.2528 44.1152 7.43116 43.8103 7.69606 43.5952ZM18.7455 36.5273C19.3753 36.5369 20.0023 36.4403 20.6004 36.2413C18.9736 37.6862 17.1329 38.8662 15.1448 39.7386C15.667 39.0885 16.2682 38.5072 16.9342 38.0083C17.5833 37.5737 18.1898 37.0778 18.7455 36.5273ZM35.6797 20.2945C35.485 20.3733 35.3279 20.5247 35.2412 20.7173C35.1545 20.9099 35.1448 21.1288 35.2142 21.3283C35.2142 21.5703 34.6905 21.6289 34.6032 21.3283C34.3704 20.4705 35.0833 19.9793 35.6797 20.2945ZM16.6942 21.1231C16.6942 22.3328 16.345 23.6012 14.1337 23.6379C14.4247 23.2493 14.4683 22.8607 14.7302 22.4574C14.992 22.0542 15.4139 21.7683 15.7558 21.3137C15.8669 21.3285 15.9794 21.3285 16.0904 21.3137C16.0541 21.7683 15.363 22.3621 15.4067 22.8387C16.0177 22.7287 16.2141 21.9589 16.3305 21.2624C16.4583 21.2356 16.581 21.1885 16.6942 21.1231ZM12.9116 21.4163C12.6367 21.7574 12.3932 22.123 12.1842 22.5088C12.0149 22.8048 11.7795 23.0569 11.4967 23.2453C11.2138 23.4336 10.8914 23.553 10.5548 23.5939C11.0204 22.6701 10.5985 22.2815 11.7769 21.277C11.8787 21.277 12.0242 21.277 12.126 21.277C11.7987 21.7536 11.3986 22.1275 11.4423 22.6041C11.6314 22.5601 11.755 22.3915 11.8787 22.1788C12.0038 21.8614 12.2006 21.5778 12.4534 21.3503C12.5625 21.3943 12.8243 21.4017 12.9116 21.4163ZM14.9557 21.6216C14.5119 22.6701 13.8064 23.8652 11.9369 23.7112C12.0361 23.2684 12.2224 22.8501 12.4847 22.4811C12.7471 22.1121 13.0803 21.7999 13.4645 21.563C13.6612 21.5933 13.8557 21.6374 14.0464 21.6949C13.6681 21.9735 13.1226 22.4281 13.0717 22.89C13.5008 22.78 13.8427 22.3841 14.3374 21.7389C14.5505 21.7628 14.7658 21.7219 14.9557 21.6216ZM24.5576 31.8862C24.3836 33.1564 23.7797 34.327 22.8481 35.2002C27.489 34.8483 31.679 31.8349 33.032 31.7762C33.3884 31.7762 33.7594 31.7762 34.1085 31.7762C35.9489 31.8715 36.2399 33.7412 38.2039 35.5448C40.2188 37.6564 41.921 37.1578 43.2158 39.1594C43.7044 39.7364 44.0552 40.4186 44.2414 41.1537C44.2996 41.8868 43.3249 42.84 42.5247 43.2432C43.1446 43.4999 43.8398 43.4999 44.4597 43.2432C44.4597 43.3899 44.547 43.4559 44.547 43.6025C43.6377 43.7418 43.0921 43.9471 43.0485 44.4383C43.0485 45.0542 43.5649 45.2815 44.1032 45.2815C44.4783 45.3045 44.8499 45.1979 45.1567 44.9793C45.4636 44.7607 45.6872 44.4431 45.7908 44.0791C45.4053 43.9691 45.4053 43.6318 45.4271 43.2946C45.4593 43.1675 45.4764 43.0371 45.478 42.906C45.4493 42.7337 45.4493 42.5577 45.478 42.3854C45.5653 42.0848 45.8418 41.8502 45.8563 41.4836C45.8563 41.2856 45.9072 41.2123 45.9581 41.2196C46.0091 41.227 46.0527 41.315 46.0454 41.5422C46.0454 41.9455 45.9436 42.532 45.9509 42.9646C45.9581 43.3972 45.9509 43.5952 46.1182 43.5878C46.2248 43.5924 46.3299 43.5609 46.4169 43.4985C46.5038 43.4361 46.5676 43.3463 46.5983 43.2432C46.6469 43.1506 46.6836 43.052 46.7074 42.95C46.6963 42.7744 46.6695 42.6001 46.6274 42.4294C46.5619 41.9675 46.5401 41.6962 46.4892 41.117C46.4892 40.7577 46.6565 40.5304 46.4892 39.9952C46.3632 39.6878 46.1409 39.4303 45.8563 39.262C43.8003 38.22 42.0874 36.6005 40.9244 34.599C40.6916 34.3644 40.9608 34.4377 41.1717 34.7383C41.8982 35.837 42.8417 36.773 43.9432 37.4877C44.1718 37.5981 44.4235 37.6511 44.6769 37.6421C44.9302 37.6332 45.1776 37.5626 45.398 37.4364C45.7254 37.1211 45.3035 36.256 45.0198 35.7721C43.5649 33.3526 43.6741 32.1062 42.4665 30.5958C41.259 29.0854 38.8295 27.6631 38.8949 26.0207C38.8949 25.4488 39.3387 25.1922 40.3498 25.1849H44.9398C45.2661 25.2009 45.592 25.1462 45.8956 25.0244C46.1992 24.9026 46.4733 24.7166 46.6994 24.479C46.9256 24.2413 47.0985 23.9575 47.2065 23.6467C47.3146 23.3359 47.3552 23.0054 47.3257 22.6774C47.2774 22.1014 47.0061 21.5678 46.5705 21.1918C46.1349 20.8159 45.57 20.6279 44.998 20.6685H35.687C35.6121 20.7601 35.5604 20.8687 35.5363 20.9849C35.5123 21.1011 35.5165 21.2215 35.5488 21.3357H45.0998C45.3139 21.3106 45.5308 21.3319 45.7361 21.3981C45.9413 21.4644 46.1301 21.5741 46.2899 21.7199C46.4497 21.8656 46.5768 22.0441 46.6626 22.2434C46.7483 22.4427 46.7909 22.6582 46.7874 22.8754C46.7915 23.1207 46.746 23.3642 46.6539 23.5913C46.5617 23.8184 46.4248 24.0242 46.2513 24.1963C46.0779 24.3684 45.8715 24.5031 45.6448 24.5924C45.4181 24.6817 45.1758 24.7236 44.9325 24.7157H36.7927C36.5163 25.3315 36.1671 25.6468 35.7379 25.6615C35.6672 26.1735 35.4601 26.6566 35.1385 27.0595C34.817 27.4623 34.3932 27.7697 33.9121 27.949C33.8685 29.1954 32.9083 29.606 31.5335 29.9579H27.329C26.9944 31.2386 26.0706 31.8715 24.5576 31.8569V31.8862ZM43.1285 43.7051C42.8678 43.8774 42.653 44.1116 42.5029 44.387C42.3938 44.6216 42.3647 45.0689 41.841 45.1202C41.7585 45.1252 41.6759 45.1118 41.5991 45.0809C41.5224 45.05 41.4534 45.0023 41.397 44.9414C41.3407 44.8804 41.2985 44.8076 41.2734 44.7282C41.2483 44.6489 41.2409 44.5649 41.2518 44.4823C41.3027 43.8884 41.8119 43.6831 42.2701 43.6172C42.5592 43.5841 42.8519 43.6141 43.1285 43.7051ZM41.5354 43.6318C41.3681 43.7491 41.0335 43.8811 40.9099 44.189C40.7862 44.497 40.8299 45.0249 40.3061 44.9735C40.2437 44.9703 40.1826 44.9537 40.1269 44.925C40.0713 44.8963 40.0222 44.856 39.9831 44.8069C39.9439 44.7577 39.9155 44.7008 39.8998 44.6398C39.884 44.5788 39.8812 44.5151 39.8915 44.453C39.9497 43.8664 40.6189 43.6171 40.8299 43.5952C41.0647 43.5522 41.3062 43.5647 41.5354 43.6318ZM23.0664 25.8081H30.0205C29.9279 26.1295 29.7247 26.4071 29.4475 26.5912C29.1702 26.7752 28.8369 26.8537 28.5074 26.8126H23.7792C23.5925 26.4439 23.3522 26.1053 23.0664 25.8081ZM24.2084 27.8317H28.9002C28.8106 28.1538 28.6094 28.433 28.3332 28.6186C28.057 28.8042 27.724 28.884 27.3945 28.8435H24.4848C24.4401 28.4948 24.3471 28.1542 24.2084 27.8317ZM24.6812 30.0312H26.9508C26.8598 30.3526 26.6583 30.6308 26.3825 30.8162C26.1066 31.0016 25.7743 31.082 25.445 31.043H24.5721L24.6812 30.0312ZM31.6135 24.3564H36.3708C36.2784 24.6764 36.0764 24.9529 35.8006 25.1369C35.5249 25.3208 35.1934 25.4002 34.865 25.3609H30.8497C31.1976 25.1067 31.4633 24.7548 31.6135 24.3491V24.3564ZM30.6242 26.1527H35.0905C34.9981 26.4727 34.7961 26.7492 34.5204 26.9332C34.2447 27.1171 33.9131 27.1965 33.5848 27.1572H29.9477C30.2943 26.9205 30.5367 26.558 30.6242 26.1454V26.1527ZM29.3003 28.1983H33.4466C33.3555 28.5191 33.1537 28.7965 32.8777 28.9807C32.6016 29.1648 32.2694 29.2436 31.9408 29.2027H28.522C28.8771 28.9527 29.1485 28.5999 29.3003 28.191V28.1983ZM14.1992 24.3711C14.1992 25.5808 13.7336 26.9299 11.4641 26.9079C11.59 26.4439 11.763 25.9943 11.9805 25.5661C12.2686 25.0893 12.6295 24.6612 13.0498 24.2977C13.1958 24.3291 13.3444 24.3463 13.4936 24.3491C13.1808 24.6937 12.4752 25.2435 12.7152 25.9474C13.1299 25.8741 13.1662 25.5515 13.3408 25.1116C13.4484 24.8783 13.5801 24.6572 13.7336 24.4517C13.8776 24.3795 14.0395 24.3515 14.1992 24.3711ZM12.2788 27.7071C12.3323 28.3013 12.2163 28.8985 11.9444 29.4285C11.6725 29.9585 11.256 30.3991 10.7439 30.6984C10.7439 30.1999 10.6348 29.628 10.613 29.2321C10.5938 28.9875 10.626 28.7416 10.7075 28.5104C10.7889 28.2792 10.9179 28.0679 11.0858 27.8903C11.2279 27.8888 11.3694 27.8716 11.5077 27.839C11.3089 28.1393 11.1865 28.4843 11.1513 28.8435C11.1311 29.016 11.1724 29.19 11.2677 29.3347C11.6823 28.9975 11.3113 28.3669 11.8642 27.8683L12.2788 27.7071ZM12.6498 30.4198C12.8258 30.9321 12.8353 31.4875 12.6771 32.0056C12.5188 32.5237 12.201 32.9775 11.7696 33.3012C11.7114 32.6121 11.4495 32.3114 11.4277 31.8862C11.3606 31.5556 11.4149 31.2117 11.5805 30.9184C11.7017 30.8872 11.8208 30.848 11.9369 30.8011C11.8638 30.9912 11.8408 31.1971 11.8701 31.3989C11.8994 31.6006 11.9801 31.7912 12.1042 31.9522C12.2424 31.5489 11.9078 31.3583 12.1697 30.6911C12.3541 30.6429 12.5239 30.5497 12.6643 30.4198H12.6498ZM13.5299 33.4259C14.1264 33.9391 14.221 34.9656 13.4208 35.9627C13.3044 35.5155 12.9844 35.2295 12.8098 34.9142C12.7347 34.746 12.6959 34.5635 12.6959 34.379C12.6959 34.1945 12.7347 34.0121 12.8098 33.8438C12.9 33.8169 12.996 33.8169 13.0862 33.8438C13.0353 34.1957 13.2171 34.9142 13.61 34.709C13.61 34.621 13.4499 34.5257 13.3626 34.3204C13.2909 34.0689 13.2909 33.802 13.3626 33.5505C13.639 33.3452 13.3917 33.5212 13.5299 33.4259ZM15.6467 35.2002C15.7777 35.4209 15.8387 35.6768 15.8213 35.9334C15.8521 36.1634 15.8371 36.3973 15.7772 36.6214C15.7172 36.8455 15.6135 37.0552 15.4721 37.2384C15.378 36.8822 15.2148 36.5483 14.992 36.256C14.8444 36.0458 14.7433 35.8061 14.6956 35.5531C14.6479 35.3001 14.6547 35.0397 14.7156 34.7896C14.8102 34.8409 14.912 34.8996 15.0721 34.9729C15.0721 35.3322 15.0721 35.7061 15.4212 35.8894C15.368 35.6215 15.3436 35.3487 15.3485 35.0756C15.4524 35.1052 15.5525 35.147 15.6467 35.2002ZM12.3224 24.3857C12.0921 24.7544 11.8879 25.1391 11.7114 25.5368C11.5757 25.8877 11.3558 26.1993 11.0715 26.4436C10.7872 26.688 10.4472 26.8576 10.082 26.9372C10.3439 26.204 10.0238 25.7568 10.3584 25.0749C10.5198 24.8079 10.7127 24.5617 10.9331 24.3417C11.0276 24.3417 11.2459 24.3417 11.3477 24.3417C11.1584 24.6355 11.0091 24.9536 10.904 25.2875C10.8882 25.3758 10.8924 25.4665 10.9163 25.5528C10.9403 25.6391 10.9833 25.7189 11.0422 25.7861C11.1266 25.7118 11.1904 25.6166 11.2274 25.5099C11.2644 25.4032 11.2732 25.2887 11.2531 25.1776C11.2531 24.9503 11.7114 24.4444 11.8933 24.3491C12.0751 24.2537 12.2206 24.3711 12.3224 24.3857ZM29.6713 43.6245C29.6285 43.9901 29.5355 44.3479 29.3949 44.6876C29.2858 44.9369 29.0748 45.2082 28.7839 45.1788C28.7144 45.1652 28.6484 45.1373 28.5901 45.0968C28.5318 45.0564 28.4823 45.0043 28.4448 44.9438C28.4073 44.8833 28.3825 44.8157 28.372 44.7451C28.3615 44.6745 28.3655 44.6026 28.3838 44.5336C28.4131 44.3338 28.4966 44.146 28.6249 43.9908C28.7532 43.8356 28.9215 43.719 29.1112 43.6538C29.2944 43.6084 29.4844 43.5985 29.6713 43.6245ZM35.2142 41.7329C35.2406 42.0027 35.3471 42.2581 35.5197 42.4661C35.4198 42.5106 35.3086 42.5225 35.2017 42.5001C35.0947 42.4778 34.9974 42.4223 34.9232 42.3414C34.9368 42.1078 35.0414 41.8891 35.2142 41.7329ZM34.8141 42.884C34.9379 43.0931 35.0195 43.3248 35.0542 43.5658C34.9671 43.5693 34.8803 43.5548 34.799 43.5233C34.7177 43.4918 34.6436 43.4439 34.5814 43.3825C34.5763 43.2833 34.5979 43.1846 34.644 43.0968C34.6901 43.009 34.759 42.9355 34.8432 42.884H34.8141ZM32.981 32.7514C33.3765 32.6513 33.7543 32.4906 34.1013 32.2748C34.2112 32.2364 34.3268 32.2165 34.4431 32.2161C34.5347 32.201 34.628 32.201 34.7196 32.2161C34.8755 32.2932 35.02 32.392 35.1487 32.5094C35.2531 32.6177 35.3503 32.7328 35.4397 32.854C35.2764 33.0506 35.073 33.2094 34.8432 33.3195C34.6135 33.4295 34.3629 33.4884 34.1085 33.4919C33.8214 33.4839 33.5393 33.4144 33.2809 33.288C33.0225 33.1616 32.7938 32.9811 32.6101 32.7587C32.7336 32.769 32.8579 32.7665 32.981 32.7514ZM31.6571 33.2426L32.0209 33.052L32.2391 32.964C33.3666 34.0564 34.545 34.4304 35.9634 33.6972C35.9271 35.7061 35.9634 37.715 35.9634 39.7239C34.8287 39.8266 33.9121 39.548 33.7812 36.5932C33.7812 36.344 33.6066 36.388 33.5848 36.5932C33.4902 38.0596 33.5048 38.9174 34.1667 39.8559C34.4068 40.2005 34.6686 40.5158 35.0542 41.0583C34.4576 42.2295 34.1625 43.5329 34.1958 44.8489C34.1378 44.9123 34.0667 44.9622 33.9875 44.9952C33.9084 45.0281 33.8231 45.0432 33.7376 45.0395C33.4539 45.0395 33.1993 44.8049 33.2138 44.5996C33.2156 43.8972 33.4176 43.2101 33.7957 42.62C33.8394 42.5394 33.7448 42.4367 33.6866 42.51C33.1881 43.0916 32.8873 43.8187 32.8283 44.585C32.3128 44.9146 31.7213 45.104 31.1116 45.1348C30.3041 45.0982 29.9332 44.9149 29.8968 44.2917C29.8808 44.1116 29.9313 43.9319 30.0387 43.7871C30.1461 43.6423 30.3028 43.5426 30.4787 43.5072C31.006 43.4777 31.5349 43.5022 32.0572 43.5805C32.0754 43.585 32.0945 43.5854 32.1128 43.5814C32.1312 43.5775 32.1484 43.5693 32.1632 43.5577C32.178 43.546 32.1899 43.5311 32.1982 43.5141C32.2064 43.4971 32.2107 43.4784 32.2107 43.4595C32.2107 43.4406 32.2064 43.4219 32.1982 43.4049C32.1899 43.3879 32.178 43.373 32.1632 43.3613C32.1484 43.3497 32.1312 43.3416 32.1128 43.3376C32.0945 43.3337 32.0754 43.334 32.0572 43.3385C31.6572 43.2791 31.2539 43.2448 30.8497 43.2359C31.628 42.708 32.8865 41.9675 33.1993 41.2196C33.2589 41.0683 33.284 40.9053 33.2727 40.7429C33.2614 40.5804 33.2139 40.4226 33.1338 40.2812C32.8172 39.6016 32.4626 38.9407 32.0718 38.3016C31.4171 37.2165 30.7115 36.102 30.6169 35.0902C30.5991 34.7146 30.6874 34.3416 30.8715 34.0145C31.0556 33.6875 31.3281 33.4198 31.6571 33.2426ZM14.2428 41.8135C14.3941 41.9141 14.5682 41.9742 14.7489 41.9884C14.9296 42.0025 15.1109 41.9701 15.2757 41.8942C15.1117 41.7001 14.9768 41.4827 14.8757 41.249C14.672 40.8237 14.1191 41.4249 14.2428 41.8135ZM13.9955 42.4954C14.2137 42.8766 14.09 42.6787 14.3083 43.0819C14.1173 43.1178 13.9203 43.1006 13.7383 43.0322C13.5563 42.9637 13.3963 42.8466 13.2753 42.6933C13.0717 42.3927 13.6463 41.9088 13.9955 42.4954ZM19.9385 37.1505C20.1421 37.2824 20.2876 37.5317 20.5277 37.6344C20.7073 37.6746 20.8936 37.6746 21.0732 37.6344C21.1169 37.1211 20.7241 37.0405 20.5204 36.9378C20.3066 36.9311 20.0983 37.0072 19.9385 37.1505ZM21.2696 35.7794C21.2124 35.8616 21.1726 35.9548 21.1525 36.0532C21.1325 36.1515 21.1328 36.253 21.1533 36.3513C21.3222 36.519 21.526 36.6468 21.7499 36.7254C21.9738 36.804 22.2123 36.8315 22.4481 36.8059C22.4744 36.5818 22.4744 36.3554 22.4481 36.1313C22.2526 36.0324 22.0962 35.8695 22.0043 35.6694C21.8225 35.6914 21.5024 35.7647 21.2769 35.7794H21.2696ZM22.3826 35.4421C22.5717 35.904 22.739 36.1753 23.5465 36.2853C23.5874 35.9933 23.5284 35.6959 23.3791 35.4421C23.0484 35.4861 22.7133 35.4861 22.3826 35.4421ZM17.3634 29.9946C17.618 29.9946 17.5816 30.3025 17.4216 30.3465C15.894 30.7644 14.8175 31.2703 14.3956 32.1575C14.197 32.5692 14.1309 33.0331 14.2064 33.4845C13.8535 33.2341 13.5822 32.8838 13.4269 32.4779C13.2715 32.072 13.239 31.6288 13.3335 31.2043C13.85 29.782 16.1414 30.0092 17.3634 29.9946ZM17.5089 30.5445C17.7053 30.4272 17.7926 30.6545 17.7126 30.7571C16.7233 31.9962 15.9959 32.8907 16.1268 33.8658C16.1954 34.3023 16.3539 34.7194 16.5924 35.0902C16.1803 35.0943 15.7773 34.9686 15.4396 34.7307C15.1018 34.4928 14.8462 34.1545 14.7084 33.7632C14.4174 32.8027 15.1739 31.9009 16.105 31.2923C16.5487 30.999 17.087 30.7938 17.5089 30.5445ZM17.9744 30.8597C17.9885 30.8313 18.0117 30.8086 18.0403 30.7953C18.0689 30.7821 18.1011 30.779 18.1317 30.7867C18.1622 30.7944 18.1892 30.8124 18.2083 30.8377C18.2273 30.8629 18.2372 30.894 18.2363 30.9257C17.8071 32.4581 17.8799 33.6458 18.3818 34.4817C18.6125 34.8631 18.9596 35.1589 19.3711 35.3248C18.979 35.4863 18.5488 35.5294 18.1329 35.4487C17.717 35.3679 17.3333 35.167 17.0288 34.8703C16.4832 34.2251 16.7087 33.118 17.1743 32.1941C17.4143 31.6662 17.7562 31.2777 17.9744 30.8597ZM18.4691 30.9184C18.4691 30.6838 18.6946 30.7058 18.7237 30.8304C18.8145 31.4454 19.0292 32.0351 19.3544 32.5634C19.6796 33.0917 20.1086 33.5474 20.615 33.9025C21.0117 34.1312 21.4697 34.2287 21.9243 34.1811C21.6545 34.5188 21.2916 34.7685 20.8813 34.899C20.471 35.0294 20.0317 35.0347 19.6184 34.9142C18.8328 34.599 18.4836 33.5652 18.4836 32.5094C18.4327 31.9375 18.4836 31.395 18.4836 30.9184H18.4691ZM18.9128 30.7351C18.7964 30.5371 19.0147 30.4418 19.0947 30.5371C19.4663 31.04 19.9337 31.463 20.4696 31.7815C21.0054 32.1 21.5989 32.3076 22.2153 32.3921C22.6719 32.4008 23.1196 32.2649 23.4955 32.0035C23.4198 32.4304 23.2206 32.8252 22.9229 33.1382C22.6252 33.4513 22.2424 33.6687 21.8225 33.7632C20.986 33.8658 20.164 33.1253 19.6402 32.2235C19.3711 31.7176 19.131 31.1603 18.9128 30.7351ZM19.1092 30.0019C18.9928 30.0019 18.9492 30.1779 19.1092 30.2805C20.0985 30.9551 20.9205 31.9815 22.0989 31.9815C23.0082 31.9815 23.7792 31.2483 23.9902 29.9799C22.3389 29.9799 20.7532 30.0166 19.1092 30.0092V30.0019ZM47.0565 42.4221C47.1482 42.4867 47.2574 42.5214 47.3693 42.5214C47.4812 42.5214 47.5904 42.4867 47.6821 42.4221C47.4982 42.2406 47.2698 42.1116 47.0202 42.0481C47.0129 42.1801 47.0638 42.3048 47.0565 42.4221ZM46.9765 41.5202C47.0441 41.597 47.1347 41.6493 47.2346 41.6691C47.3344 41.689 47.438 41.6753 47.5294 41.6302C47.3475 41.4763 47.1147 41.1976 46.9329 41.0437C46.9148 41.2039 46.9296 41.3661 46.9765 41.5202ZM14.5483 28.1103L15.7558 26.8712L16.927 28.1103H14.5483ZM17.5744 28.1103L19.8512 25.9107L22.1207 28.1103H17.5744ZM13.3772 28.7702L15.7558 26.3727L17.2543 27.9343L19.8512 25.3682L23.2846 28.7702H13.3772ZM4.96825 16.3793H4.93188C4.55566 16.4081 4.18563 16.4921 3.83348 16.6286C3.42422 16.8241 3.06749 17.1158 2.79328 17.4791V14.5537L2.73508 14.605C2.27889 15.1888 1.94483 15.8598 1.75307 16.5773C2.19418 16.7258 2.56487 17.0341 2.79328 17.4425V19.796C2.41502 18.4982 2.06586 17.1199 0.61103 16.3354C1.47339 18.6323 2.01918 21.0375 2.23317 23.4839C2.38224 24.965 2.45508 26.4529 2.45139 27.9417H2.8151V24.0411C2.80783 20.4192 3.04787 18.4103 4.96825 16.3793ZM2.37138 33.6019L2.786 33.3012V35.9627H2.37138V33.6019ZM3.42613 33.9758V36.388H2.00767V33.9098C1.86089 33.9018 1.71818 33.8583 1.59158 33.783C1.46498 33.7077 1.3582 33.6028 1.28025 33.4772C1.06555 33.0203 1.00919 32.5039 1.12022 32.0108C0.826389 31.7535 0.637273 31.3957 0.589207 31.0064C0.567309 30.78 0.604841 30.5517 0.698039 30.3446C0.791238 30.1374 0.93683 29.9585 1.12022 29.826C0.937532 29.5327 0.851006 29.189 0.872899 28.8435C0.904587 28.621 1.00786 28.4151 1.16687 28.2575C1.32588 28.0999 1.53182 27.9992 1.75307 27.971C1.84261 27.963 1.93268 27.963 2.02222 27.971C1.95675 23.4106 1.5203 19.5834 0 15.9981C0.503643 15.937 1.01442 15.9844 1.49848 16.1374C1.6951 15.3362 2.14435 14.621 2.77873 14.0991C3.3967 14.6341 3.84032 15.3444 4.05171 16.1374C4.5361 15.9862 5.04652 15.9387 5.55018 15.9981C4.22629 18.7622 3.52069 23.4986 3.55706 27.4944H3.66618C4.14207 27.4723 4.61275 27.6021 5.01114 27.8654C5.40952 28.1287 5.71527 28.512 5.8848 28.9608H10.3366L10.3802 28.2863C9.98037 28.336 9.5752 28.3211 9.17999 28.2423C10.1111 27.2085 9.68191 25.6175 10.3584 24.5763C10.0408 24.6457 9.7149 24.6679 9.39094 24.6423C10.3148 23.9971 10.3366 23.4179 10.6275 22.5234C10.8292 21.8237 11.244 21.2056 11.8132 20.7565C11.4368 20.7621 11.0624 20.7001 10.7076 20.5732C11.3771 20.24 11.9191 19.6937 12.2497 19.0188C12.4001 18.7182 12.6226 18.4602 12.897 18.2682C13.1713 18.0761 13.4889 17.9561 13.8209 17.919C13.5541 17.5339 13.3904 17.0859 13.3458 16.6183C13.3012 16.1508 13.3772 15.6795 13.5663 15.2502C13.8153 15.5589 14.1281 15.8091 14.4829 15.9834H16.4687C16.775 15.9768 17.079 16.0392 17.3584 16.166C17.6377 16.2929 17.8855 16.481 18.0836 16.7166C18.4276 16.4132 18.8745 16.2554 19.3312 16.2758C19.7878 16.2963 20.219 16.4936 20.535 16.8266H23.1609C23.2884 16.8233 23.4131 16.8646 23.5139 16.9435C23.6147 17.0223 23.6853 17.1338 23.7138 17.2592C23.7246 17.408 23.7246 17.5575 23.7138 17.7064C23.7138 18.0143 23.7138 17.9337 23.9611 18.1097C24.1 18.216 24.2106 18.3553 24.2829 18.5153C24.3553 18.6752 24.3872 18.8507 24.3757 19.0261C24.3846 19.1653 24.3656 19.3048 24.3199 19.4364C24.2743 19.568 24.2028 19.689 24.1099 19.7923C24.0169 19.8955 23.9044 19.9789 23.7788 20.0375C23.6533 20.0961 23.5174 20.1286 23.3791 20.1333H21.8661C21.7872 20.1241 21.7072 20.1328 21.632 20.1589C21.5569 20.1851 21.4885 20.2278 21.432 20.2841C21.3754 20.3404 21.3322 20.4088 21.3053 20.4842C21.2785 20.5596 21.2688 20.6401 21.2769 20.7198C21.2917 20.876 21.3658 21.0204 21.4837 21.1229C21.6017 21.2254 21.7543 21.278 21.9098 21.2697H22.7608C23.0664 21.2697 23.5828 21.4823 23.5537 22.0029C23.5101 22.7361 22.6372 22.7361 22.0989 22.7361C21.5606 22.7361 21.4297 22.89 21.4297 23.2493C21.4297 23.6085 21.7206 23.7625 22.1571 23.7625C22.33 23.773 22.5031 23.7449 22.664 23.6803C22.825 23.6157 22.9698 23.5161 23.0882 23.3886C23.1523 23.5025 23.1849 23.6316 23.1827 23.7625C25.5832 23.7625 27.9691 23.7625 30.3696 23.7625C30.8497 23.7625 31.2862 23.8212 31.6571 23.4399C31.7422 23.6105 31.7578 23.8078 31.7008 23.9898H36.2108C36.3527 23.9859 36.492 23.9495 36.618 23.8835C36.744 23.8174 36.8535 23.7234 36.9382 23.6085C37.0496 23.836 37.0755 24.0965 37.0109 24.3417C39.6733 24.3417 42.4084 24.3417 45.0707 24.3417C45.264 24.3422 45.4552 24.3025 45.6326 24.2251C45.8099 24.1476 45.9694 24.0341 46.1012 23.8917C46.233 23.7492 46.3342 23.5808 46.3984 23.3971C46.4627 23.2134 46.4886 23.0183 46.4746 22.824C46.4522 22.4829 46.2963 22.1646 46.0413 21.9392C45.7863 21.7137 45.4529 21.5995 45.1143 21.6216H36.2035C36.1282 21.81 35.9951 21.9693 35.8237 22.0761C35.6523 22.1829 35.4515 22.2318 35.2506 22.2155C35.0501 22.2186 34.8529 22.1645 34.6817 22.0594C34.5105 21.9543 34.3723 21.8025 34.2831 21.6216H30.1223C29.5036 21.6796 28.882 21.5474 28.3393 21.2425C27.7965 20.9376 27.3581 20.4742 27.0817 19.9133C26.6452 18.8868 26.3907 17.7577 25.1977 17.1858C26.6525 16.8119 27.46 16.8852 28.1074 17.3252C28.3401 16.9072 29.1476 17.0026 29.4894 17.2885C30.1077 16.7386 31.1043 17.2225 31.3589 17.5011C31.6851 17.2863 32.053 17.1438 32.438 17.0832C32.823 17.0225 33.2164 17.045 33.5921 17.1492C33.2194 17.3079 32.8999 17.5714 32.6716 17.908C32.4433 18.2447 32.3159 18.6405 32.3045 19.0481C32.3045 19.8326 33.3011 20.3752 34.3268 20.3752C34.4143 20.2024 34.5476 20.0574 34.712 19.9564C34.8764 19.8555 35.0654 19.8025 35.2579 19.8033C35.4557 19.7998 35.6506 19.8514 35.8213 19.9522C35.992 20.0531 36.1318 20.1995 36.2253 20.3752H45.1653C45.4973 20.3723 45.8267 20.4355 46.1345 20.5611C46.4424 20.6868 46.7226 20.8724 46.9591 21.1074C47.1956 21.3424 47.3838 21.6221 47.5128 21.9305C47.6419 22.2389 47.7093 22.57 47.7112 22.9047C47.7112 23.7625 47.1002 25.5515 45.2816 25.5442H41.4627C41.1845 25.5093 40.9034 25.5822 40.6765 25.7483C40.4497 25.9144 40.2938 26.1611 40.2407 26.4386C40.1388 27.7804 41.8773 28.9388 42.9903 30.7204C44.3215 32.832 44.8088 35.9407 46.6856 37.1431C46.5495 38.2687 46.6061 39.4095 46.8529 40.5158C47.2457 40.8897 47.5803 41.3663 47.9658 41.7402C47.8395 41.875 47.6889 41.9845 47.5221 42.0628C47.6967 42.1874 47.7912 42.3121 47.9658 42.4367C47.9192 42.5352 47.85 42.6211 47.764 42.6874C47.6781 42.7537 47.5777 42.7984 47.4712 42.818L47.5366 43.3239C47.4874 43.6118 47.3513 43.8775 47.147 44.0848C46.9427 44.292 46.68 44.4308 46.3946 44.4823C46.494 44.6129 46.554 44.7695 46.5675 44.9335C46.581 45.0976 46.5474 45.262 46.4707 45.4073C46.3941 45.5526 46.2775 45.6726 46.1351 45.753C45.9926 45.8334 45.8302 45.8708 45.6672 45.8607C44.8619 45.9682 44.0478 45.9928 43.2376 45.934C42.7648 45.8827 42.7357 45.868 42.5102 45.4721C42.1377 45.7009 41.7365 45.8785 41.3172 46C41.165 45.8268 41.0354 45.6346 40.9317 45.4281C40.7498 45.5601 40.5098 45.7581 40.2843 45.89C40.0797 45.7425 39.9165 45.5441 39.8107 45.3141C39.7049 45.0841 39.66 44.8303 39.6805 44.5776C39.7016 44.2522 39.8408 43.946 40.0716 43.7175C40.3024 43.489 40.6085 43.3541 40.9317 43.3385C41.3246 43.2802 41.7205 43.2434 42.1174 43.2286C42.7502 42.686 43.7613 42.0775 43.8195 41.3809C43.8996 40.3985 42.7939 39.1007 42.0956 38.4995C41.3972 37.8983 39.8115 37.4804 38.3203 36.102C37.9638 35.7647 37.5929 35.3688 37.2946 35.0169C36.8696 35.9659 36.5689 36.9665 36.3999 37.9936C36.3918 38.801 36.5375 39.6024 36.8291 40.3545C36.8945 40.5671 36.9236 40.5818 36.7491 40.7284C36.3853 41.0437 35.9198 41.205 35.6652 41.5496C35.6608 41.7306 35.6934 41.9106 35.761 42.0783C35.8286 42.2461 35.9297 42.398 36.058 42.5247C35.9902 42.6352 35.8927 42.7242 35.7769 42.7812C35.661 42.8383 35.5315 42.8612 35.4033 42.8473C35.4332 43.147 35.3985 43.4496 35.3015 43.7345C35.1702 43.8119 35.0279 43.8688 34.8796 43.9031C34.944 44.0308 34.9812 44.1706 34.9887 44.3137C35.0174 44.4649 35.0129 44.6205 34.9756 44.7698C34.9382 44.9191 34.869 45.0583 34.7727 45.1777C34.6763 45.2972 34.5552 45.394 34.4179 45.4613C34.2806 45.5286 34.1303 45.5648 33.9776 45.5674C33.7847 45.5747 33.5924 45.5398 33.4142 45.4651C33.2359 45.3904 33.0757 45.2778 32.9447 45.1348C32.5378 45.3196 32.1199 45.4788 31.6935 45.6114C31.4738 45.6766 31.2503 45.728 31.0243 45.7654C30.5437 45.8457 30.0563 45.8777 29.5695 45.8607C29.5011 45.6991 29.4546 45.5289 29.4313 45.3548C28.9723 45.5683 28.48 45.6997 27.9764 45.7434C27.9442 45.3457 27.9442 44.946 27.9764 44.5483C28.0457 44.2206 28.2099 43.9211 28.4481 43.6875C28.6864 43.4538 28.988 43.2967 29.3149 43.2359C29.6306 43.1923 29.9491 43.1727 30.2678 43.1772C31.1552 42.3267 32.9301 41.8502 32.8428 40.6404C32.7555 39.4307 29.9332 37.1065 30.0859 33.9098C28.0344 34.7541 25.865 35.271 23.6556 35.4421C23.8455 35.7536 23.9273 36.1198 23.8883 36.4833C23.6201 36.5888 23.3315 36.6314 23.0445 36.6079C23.0445 36.8352 23.0445 37.0845 22.9936 37.3411C22.4814 37.3769 21.9668 37.3573 21.4588 37.2824C21.4224 37.3924 21.5315 37.869 21.4588 38.0156C21.1667 38.1224 20.8533 38.1562 20.5454 38.1141C20.2375 38.0719 19.9444 37.9551 19.6912 37.7737C18.8943 38.294 18.138 38.8749 17.4289 39.5113C16.7188 40.0579 15.915 40.468 15.0575 40.7211L14.9993 41.0143C15.253 41.3171 15.448 41.6654 15.574 42.0408C15.2451 42.2616 14.863 42.3884 14.4683 42.4074C14.5831 42.7746 14.6323 43.1593 14.6138 43.5438C14.1693 43.6458 13.7065 43.6331 13.2681 43.5072C13.3845 44.9735 13.0935 45.5601 11.9442 45.5674C11.7219 45.5597 11.5028 45.5126 11.2968 45.4281C10.7949 45.5798 10.2775 45.6733 9.75465 45.7067C9.52988 45.7327 9.30292 45.7327 9.07815 45.7067C8.99814 45.6041 8.96177 45.4868 8.87448 45.3621C8.43075 45.3621 8.07432 45.802 7.46329 45.6921C7.41841 45.5362 7.38677 45.3768 7.36872 45.2155C7.15498 45.4131 6.90886 45.5719 6.64131 45.6847C6.40036 45.7235 6.15484 45.7235 5.91389 45.6847C5.91389 45.4721 5.91389 45.3328 5.83388 44.9515C5.80617 44.6312 5.88372 44.3105 6.05459 44.0389C6.22547 43.7673 6.48018 43.5599 6.77952 43.4485C7.55169 43.23 8.33973 43.0731 9.13634 42.9793C9.83529 42.5886 10.4469 42.057 10.9331 41.4176C11.6351 39.8172 12.457 38.2731 13.3917 36.7985C13.1282 36.857 12.8551 36.857 12.5916 36.7985C12.7183 36.4937 12.7897 36.1684 12.8025 35.8381C12.638 35.271 12.502 34.696 12.3952 34.1151C12.2214 34.2587 12.0194 34.3637 11.8025 34.4231C11.5856 34.4825 11.3587 34.495 11.1367 34.4597C11.1731 34.3005 11.1974 34.1387 11.2095 33.9758C10.4968 33.9142 9.80027 33.7281 9.15089 33.4259C8.78719 33.2499 8.52532 32.9053 8.28527 32.8173C8.19835 33.1209 8.03356 33.3959 7.8075 33.6148C7.58145 33.8336 7.30214 33.9885 6.99774 34.0638C6.84977 33.9107 6.7444 33.721 6.69223 33.5139C6.31947 33.8237 5.87762 34.0375 5.4047 34.1371C5.27552 33.8075 5.25762 33.4442 5.35378 33.1033C4.66274 33.4112 4.12445 33.9758 3.42613 33.9758ZM18.9856 0C17.8865 1.65388 17.2783 3.58947 17.2325 5.57954C17.2169 7.66811 17.8279 9.71267 18.9856 11.445C20.0919 9.74426 20.6764 7.75255 20.6659 5.71884C20.614 3.69687 20.0344 1.72437 18.9856 0Z" fill="#051942"/>
<path d="M62.9346 29.8454H66.2821V30.3838H66.0935C66.0288 34.0718 65.2202 36.3061 60.4496 36.3061C56.7247 36.3061 54.8111 35.1809 54.52 31.7405C54.4715 31.1537 54.4499 30.5022 54.4499 29.7862V23.1908H54.2559V22.6524H57.598V23.1908H57.377V25.1237H66.0827V27.3688H57.377V29.9638C57.377 32.182 57.377 34.0556 60.3364 34.0556C63.1017 34.0556 63.1718 32.3274 63.161 30.4268H62.9346V29.8454ZM77.3543 30.8522H77.5645C77.6399 29.3521 77.5894 27.8483 77.4136 26.3566C77.1872 25.1614 75.915 24.7414 74.7183 24.7414C71.6942 24.7414 71.7589 26.7496 71.7589 28.8278V35.5577H71.9638V36.0961H68.6162V35.5577H68.8642V28.9247C68.8642 27.3095 68.8049 25.3283 69.9423 24.0253C71.0797 22.7224 73.0688 22.4102 74.8531 22.4102C77.3543 22.4102 79.6075 23.1155 80.2436 25.5759C80.6156 27.0027 80.5293 29.1778 80.5078 30.8576H80.7234V31.396H77.3759L77.3543 30.8522ZM94.9113 27.3418H86.2056V29.9369C86.2056 32.1551 86.2056 34.0287 89.1704 34.0287C91.9303 34.0287 92.0004 32.3005 91.9896 30.3999H91.7632V29.8615H95.1161V30.3999H94.9221C94.8574 34.0879 94.0542 36.3223 89.2782 36.3223C85.5587 36.3223 83.6397 35.197 83.3486 31.7567C83.2947 31.1698 83.2731 30.5184 83.2731 29.8023V23.1908H83.0791V22.6524H86.432V23.1908H86.211V25.1237H94.9167L94.9113 27.3418ZM106.172 22.6309H109.52V23.1693H109.293V33.8187H110.84V36.1177H106.442V32.0689C105.099 33.1457 101.951 32.9842 100.485 32.3974C97.7898 31.3206 97.6497 29.167 97.6443 26.8035H97.4394V26.2651H100.787V26.8035H100.582C100.582 28.7794 100.695 30.5238 103.536 30.5238C105.649 30.5238 106.194 29.63 106.312 27.9233C106.425 26.3943 106.372 24.7522 106.361 23.1908H106.151L106.172 22.6309ZM122.117 22.6309H125.465V23.1693H125.255V29.7162C125.255 30.303 125.228 33.2426 124.786 33.781L126.893 35.3962L124.926 37.356L122.845 35.7408C121.836 36.2148 120.724 36.4295 119.611 36.3653C114.112 36.3653 113.6 33.7864 113.6 29.8454V23.1908H113.395V22.6524H116.748V23.1908H116.544V29.9369C116.544 32.1551 116.544 34.0287 119.503 34.0287C122.462 34.0287 122.263 32.0636 122.322 30.093V23.1908H122.117V22.6309ZM152.385 31.7836H152.585C152.626 30.9179 152.579 30.0501 152.444 29.1939C152.202 27.961 151.048 27.5357 149.782 27.5357C147.679 27.5357 146.984 28.4832 146.865 30.2276C146.747 31.972 146.806 33.8026 146.817 35.5631H147.027V36.1015H143.674V35.5631H143.884V23.1801H143.674V22.6417H147.027V23.1801H146.822V26.5612C147.124 25.7051 149.021 25.2152 149.895 25.2152C151.512 25.2152 153.334 25.5005 154.396 26.7227C155.571 27.9341 155.56 30.0984 155.544 31.7782H155.738V32.3166H152.385V31.7836ZM140.866 33.1511C140.256 35.6277 137.912 36.3384 135.475 36.3384C133.039 36.3384 130.462 35.7462 129.766 33.248C129.542 32.1192 129.444 30.9689 129.475 29.8185V24.8868H127.961V22.6309H132.413V29.9369C132.413 32.0905 132.343 34.0287 135.373 34.0287C138.3 34.0287 138.187 32.1174 138.187 30.093V27.8964H137.982V27.358H141.329V27.8964H141.097C141.141 29.5762 141.221 31.7082 140.866 33.1565V33.1511Z" fill="#051942"/>
<path d="M57.415 43.0295C57.5873 43.0401 57.7571 42.9842 57.8894 42.8734C57.9499 42.8178 57.997 42.7491 58.0269 42.6726C58.0568 42.5961 58.0688 42.5138 58.0619 42.4319C58.0636 42.3468 58.0478 42.2622 58.0153 42.1834C57.9829 42.1047 57.9345 42.0335 57.8732 41.9743C57.7332 41.8796 57.5679 41.829 57.3988 41.829C57.2297 41.829 57.0645 41.8796 56.9245 41.9743C56.8577 42.0294 56.8052 42.0997 56.7714 42.1794C56.7376 42.259 56.7236 42.3457 56.7304 42.4319C56.7264 42.5186 56.7433 42.605 56.78 42.6838C56.8166 42.7625 56.8717 42.8313 56.9406 42.8841C57.0084 42.9324 57.0829 42.9704 57.1617 42.9972C57.2426 43.0275 57.3286 43.0422 57.415 43.0403V43.0295ZM56.7304 43.6433V44.284H59.2963V45.1831H56.7304V45.5438H55.5445V45.1831H54.7144V44.2678H55.5445V42.4104C55.5328 42.1942 55.5761 41.9787 55.6704 41.7838C55.7646 41.5889 55.9068 41.4211 56.0836 41.2959C56.4759 41.0266 56.9447 40.8906 57.4204 40.9082C57.8845 40.8831 58.3432 41.0181 58.7195 41.2905C58.882 41.4263 59.0101 41.5985 59.0935 41.7931C59.1769 41.9877 59.2131 42.1992 59.1993 42.4104C59.2119 42.6168 59.1732 42.8231 59.0867 43.0109C59.0001 43.1988 58.8685 43.3624 58.7034 43.4871C58.3356 43.7468 57.892 43.8775 57.442 43.8586C57.314 43.8632 57.1862 43.845 57.0646 43.8048L56.876 43.724L56.7304 43.6433Z" fill="#051942"/>
<path d="M65.9649 43.8754V41.0273H67.1562V44.0693V44.22L67.1184 44.3869C67.1167 44.4399 67.1019 44.4917 67.0753 44.5377L67.7437 45.0007L67.0969 45.9483L66.3422 45.4099C66.1934 45.4788 66.0381 45.5329 65.8786 45.5714C65.7214 45.6082 65.5603 45.6262 65.3989 45.6252C64.9352 45.6418 64.4825 45.4821 64.1321 45.1784C63.9626 45.0214 63.8298 44.829 63.7432 44.615C63.6566 44.401 63.6182 44.1706 63.6308 43.9401V41.0273H64.8221V43.8754C64.7998 44.1128 64.865 44.3502 65.0053 44.5431C65.0572 44.6025 65.1209 44.6504 65.1924 44.6838C65.2638 44.7172 65.3415 44.7353 65.4204 44.7369C65.4954 44.7325 65.5687 44.7126 65.6356 44.6783C65.7024 44.6439 65.7613 44.5961 65.8085 44.5377C65.9444 44.3449 66.0075 44.1103 65.9864 43.8754" fill="#051942"/>
<path d="M73.8613 45.534V42.6752C73.8598 42.479 73.8137 42.2857 73.7266 42.1098C73.6951 42.0244 73.6376 41.9509 73.5622 41.8998C73.4868 41.8486 73.3973 41.8223 73.3061 41.8245C73.2127 41.83 73.1223 41.8597 73.0439 41.9107C72.9654 41.9616 72.9016 42.0321 72.8587 42.1152L72.7401 42.3952L72.7078 42.5513V43.8219H71.5111V42.5998C71.5063 42.3691 71.5521 42.1403 71.6452 41.9291C71.7383 41.718 71.8765 41.5298 72.0501 41.3776C72.3969 41.0619 72.8533 40.8938 73.3223 40.9092C73.7806 40.894 74.2283 41.0494 74.5783 41.3453C74.7509 41.5036 74.886 41.6983 74.9736 41.9153C75.0613 42.1324 75.0993 42.3662 75.085 42.5998V44.6188H75.9637V45.534H73.8613Z" fill="#051942"/>
<path d="M82.1574 43.8754V41.0273H83.3487V44.0693V44.22L83.311 44.3869C83.3088 44.4392 83.296 44.4905 83.2732 44.5377L83.9363 45.0007L83.2894 45.9483L82.5401 45.4099C82.3891 45.478 82.2321 45.5321 82.0711 45.5714C81.9139 45.6085 81.7529 45.6265 81.5914 45.6252C81.1291 45.6431 80.6776 45.4832 80.33 45.1784C80.1586 45.0226 80.0242 44.8306 79.9366 44.6164C79.8489 44.4022 79.8102 44.1711 79.8233 43.9401V41.0273H81.0146V43.8754C80.9913 44.1138 81.0586 44.3521 81.2033 44.5431C81.2534 44.6031 81.316 44.6516 81.3867 44.6851C81.4575 44.7185 81.5346 44.7362 81.6129 44.7369C81.688 44.7325 81.7612 44.7126 81.8281 44.6783C81.8949 44.6439 81.9538 44.5961 82.0011 44.5377C82.1369 44.3449 82.2 44.1103 82.1789 43.8754" fill="#051942"/>
<path d="M90.0385 43.0295C90.2091 43.0392 90.3769 42.9834 90.5075 42.8734C90.5691 42.8183 90.6171 42.7499 90.648 42.6733C90.6788 42.5968 90.6916 42.5142 90.6854 42.4319C90.6859 42.3469 90.6695 42.2627 90.6371 42.1841C90.6047 42.1056 90.557 42.0342 90.4967 41.9743C90.3556 41.8798 90.1896 41.8294 90.0197 41.8294C89.8498 41.8294 89.6838 41.8798 89.5426 41.9743C89.4768 42.0299 89.4253 42.1005 89.3925 42.1801C89.3597 42.2598 89.3465 42.3461 89.3539 42.4319C89.3493 42.5182 89.3654 42.6043 89.4011 42.683C89.4367 42.7617 89.4908 42.8307 89.5588 42.8841C89.6285 42.9324 89.7047 42.9705 89.7852 42.9972C89.8661 43.0275 89.9521 43.0422 90.0385 43.0403V43.0295ZM89.3486 43.6325V44.2732H91.9091V45.1723H89.3486V45.533H88.1626V45.1723H87.3379V44.2571H88.1626V42.4104C88.1509 42.1942 88.1942 41.9787 88.2885 41.7838C88.3828 41.5889 88.5249 41.4211 88.7017 41.2959C89.096 41.0265 89.5665 40.8906 90.0439 40.9082C90.508 40.8831 90.9667 41.0181 91.3431 41.2905C91.5049 41.4266 91.6322 41.599 91.7147 41.7936C91.7971 41.9882 91.8323 42.1996 91.8174 42.4104C91.8311 42.6164 91.7935 42.8225 91.7079 43.0104C91.6223 43.1983 91.4914 43.3621 91.3269 43.4871C90.9584 43.7454 90.5153 43.8758 90.0655 43.8586C89.9375 43.8632 89.8097 43.845 89.6882 43.8048L89.4995 43.724L89.3486 43.6325Z" fill="#051942"/>
<path d="M98.5821 43.8754V41.0273H99.7788V44.0693V44.22L99.7465 44.3869C99.742 44.4395 99.7273 44.4907 99.7034 44.5377L100.372 45.0007L99.7195 45.9483L98.9703 45.4099C98.8211 45.478 98.6659 45.5321 98.5067 45.5714C98.3494 45.6082 98.1884 45.6262 98.0269 45.6252C97.5633 45.6418 97.1105 45.4821 96.7601 45.1784C96.59 45.0216 96.4564 44.8295 96.3689 44.6155C96.2813 44.4015 96.2419 44.1709 96.2534 43.9401V41.0273H97.434V43.8754C97.4091 44.1131 97.4745 44.3513 97.6172 44.5431C97.6691 44.6025 97.7328 44.6504 97.8043 44.6838C97.8757 44.7172 97.9534 44.7353 98.0323 44.7369C98.1064 44.7318 98.1786 44.7115 98.2445 44.6772C98.3104 44.6429 98.3684 44.5954 98.415 44.5377C98.5509 44.3449 98.614 44.1103 98.5929 43.8754" fill="#051942"/>
<path d="M109.001 42.6224V45.5351H107.81V42.7085C107.819 42.4759 107.747 42.2473 107.605 42.0625C107.541 41.9822 107.458 41.918 107.365 41.8751C107.271 41.8321 107.169 41.8114 107.066 41.8148V44.2914H105.875V41.8148C105.773 41.8078 105.671 41.8251 105.577 41.8654C105.483 41.9057 105.4 41.9677 105.336 42.0463C105.269 42.1253 105.22 42.2169 105.19 42.3155C105.156 42.4308 105.139 42.5506 105.141 42.6709V43.6669H103.956V42.5901C103.958 42.3369 104.028 42.0891 104.16 41.8729C104.292 41.6568 104.48 41.4804 104.705 41.3626C105.232 41.0373 105.843 40.8727 106.462 40.8888C107.089 40.8743 107.708 41.0367 108.246 41.3572C108.475 41.4769 108.667 41.6572 108.8 41.8785C108.933 42.0998 109.003 42.3535 109.001 42.6116" fill="#051942"/>
<path d="M114.56 41.0273V41.8134H117.05V42.7233H114.56V43.8755C114.556 44.0802 114.587 44.2842 114.652 44.4785C114.716 44.6454 114.883 44.7261 115.153 44.7261C115.244 44.7343 115.336 44.7177 115.419 44.6778C115.501 44.638 115.572 44.5765 115.622 44.5C115.653 44.405 115.676 44.3078 115.692 44.2093C115.703 44.0983 115.703 43.9864 115.692 43.8755V43.4286H116.889V43.967C116.899 44.1961 116.861 44.4247 116.779 44.6387C116.696 44.8527 116.57 45.0474 116.409 45.2107C116.254 45.3615 116.071 45.4804 115.87 45.5606C115.63 45.6398 115.379 45.678 115.126 45.6737C114.662 45.6902 114.21 45.5305 113.859 45.2268C113.689 45.0701 113.556 44.878 113.468 44.664C113.38 44.45 113.341 44.2194 113.353 43.9885V41.0273H114.56Z" fill="#051942"/>
<path d="M123.428 42.3521C123.439 42.2861 123.439 42.2188 123.428 42.1529C123.417 42.1148 123.401 42.0786 123.38 42.0452C123.383 42.0328 123.383 42.0198 123.38 42.0075L123.347 41.9698C123.299 41.9163 123.238 41.8755 123.171 41.8511C123.103 41.8267 123.03 41.8194 122.959 41.8298C122.895 41.8269 122.83 41.8389 122.771 41.8651C122.712 41.8913 122.66 41.9308 122.619 41.9806L122.571 42.1098C122.569 42.1385 122.569 42.1672 122.571 42.1959C122.571 42.239 122.571 42.2713 122.571 42.2928C122.565 42.3519 122.565 42.4115 122.571 42.4705C122.577 42.5183 122.594 42.5643 122.619 42.6051C122.678 42.6724 122.752 42.7242 122.835 42.7559L123.789 42.9766C124.077 43.0372 124.333 43.2021 124.506 43.4396C124.691 43.6862 124.786 43.988 124.776 44.2957C124.79 44.5016 124.747 44.7074 124.652 44.8907C124.557 45.074 124.413 45.2276 124.237 45.3348C123.863 45.5551 123.436 45.667 123.002 45.6578C122.835 45.6673 122.668 45.6673 122.501 45.6578C122.375 45.6446 122.252 45.6138 122.134 45.5663C122.035 45.5283 121.939 45.4815 121.849 45.4263C121.763 45.3723 121.682 45.311 121.606 45.2432C121.46 45.1055 121.347 44.936 121.277 44.7479C121.245 44.6456 121.223 44.5433 121.202 44.441C121.184 44.3324 121.175 44.2226 121.175 44.1126H122.372C122.362 44.2887 122.411 44.4629 122.512 44.6079C122.575 44.6669 122.65 44.7118 122.731 44.7397C122.813 44.7675 122.9 44.7777 122.986 44.7695C123.136 44.7738 123.283 44.7304 123.406 44.6456C123.465 44.5992 123.511 44.539 123.54 44.4703C123.569 44.4017 123.581 44.3268 123.574 44.2526C123.581 44.2117 123.581 44.1697 123.574 44.1288C123.553 44.083 123.528 44.0396 123.498 43.9995C123.407 43.9079 123.297 43.8379 123.175 43.795L122.248 43.585C122.011 43.5148 121.801 43.3761 121.644 43.1866C121.601 43.1415 121.565 43.0908 121.536 43.0358C121.498 42.9699 121.463 42.9015 121.434 42.8312C121.406 42.7525 121.386 42.6714 121.374 42.589C121.366 42.5048 121.366 42.4201 121.374 42.3359C121.371 42.1542 121.405 41.9737 121.474 41.8054C121.542 41.637 121.644 41.4842 121.773 41.356C121.925 41.2114 122.106 41.0999 122.304 41.0286C122.501 40.9572 122.712 40.9276 122.921 40.9415C123.173 40.9086 123.429 40.931 123.671 41.0073C123.913 41.0835 124.136 41.2118 124.323 41.383C124.525 41.6644 124.624 42.0065 124.603 42.3521H123.428Z" fill="#051942"/>
<path d="M131.303 43.8754V41.0273H132.473V44.0693V44.22L132.435 44.3869C132.433 44.4399 132.418 44.4917 132.392 44.5377L133.06 45.0007L132.413 45.9483L131.659 45.4099C131.51 45.4788 131.355 45.5329 131.195 45.5714C131.038 45.6085 130.877 45.6265 130.715 45.6252C130.253 45.6431 129.802 45.4832 129.454 45.1784C129.283 45.0226 129.148 44.8306 129.061 44.6164C128.973 44.4022 128.934 44.1711 128.947 43.9401V41.0273H130.139V43.8754C130.115 44.1138 130.183 44.3521 130.327 44.5431C130.377 44.6031 130.44 44.6516 130.511 44.6851C130.581 44.7185 130.659 44.7362 130.737 44.7369C130.812 44.7325 130.885 44.7126 130.952 44.6783C131.019 44.6439 131.078 44.5961 131.125 44.5377C131.261 44.3449 131.324 44.1103 131.303 43.8754Z" fill="#051942"/>
<path d="M139.335 43.8218V42.675C139.335 42.5574 139.322 42.4401 139.297 42.3251C139.27 42.2262 139.232 42.1305 139.184 42.0397C139.136 41.9705 139.072 41.9145 138.996 41.8769C138.921 41.8392 138.837 41.8212 138.753 41.8244C138.703 41.8162 138.652 41.8162 138.602 41.8244H138.505C138.467 41.8368 138.43 41.855 138.397 41.8782C138.246 41.9356 138.171 42.1833 138.171 42.6212V45.4801H136.98V42.5997C136.966 42.3693 137.001 42.1386 137.084 41.9232C137.167 41.7077 137.295 41.5125 137.459 41.3506C137.825 41.0646 138.275 40.9092 138.74 40.9092C139.204 40.9092 139.654 41.0646 140.02 41.3506C140.192 41.508 140.327 41.7018 140.415 41.9179C140.502 42.134 140.54 42.3669 140.527 42.5997V43.8218H139.335Z" fill="#051942"/>
<path d="M147.145 43.8754V41.0273H148.342V44.0693L148.315 44.22L148.283 44.3869C148.278 44.4395 148.263 44.4907 148.24 44.5377L148.903 45.0007L148.256 45.9483L147.506 45.4099C147.357 45.4772 147.202 45.5312 147.043 45.5714C146.886 45.6082 146.725 45.6262 146.563 45.6252C146.099 45.6418 145.647 45.4821 145.296 45.1784C145.125 45.0226 144.991 44.8306 144.903 44.6164C144.815 44.4022 144.777 44.1711 144.79 43.9401V41.0273H145.981V43.8754C145.958 44.1138 146.025 44.3521 146.17 44.5431C146.22 44.6031 146.282 44.6516 146.353 44.6851C146.424 44.7185 146.501 44.7362 146.579 44.7369C146.654 44.7325 146.728 44.7126 146.794 44.6783C146.861 44.6439 146.92 44.5961 146.967 44.5377C147.103 44.3449 147.166 44.1103 147.145 43.8754Z" fill="#051942"/>
<path d="M154.401 41.0273V43.8862C154.4 43.9947 154.411 44.1031 154.433 44.2093C154.456 44.3056 154.492 44.3981 154.541 44.4838C154.587 44.5629 154.653 44.6281 154.733 44.6726C154.812 44.7172 154.903 44.7394 154.994 44.7369C155.082 44.7429 155.17 44.7225 155.247 44.6784C155.324 44.6343 155.386 44.5685 155.425 44.4892C155.521 44.3031 155.568 44.0954 155.56 43.8862V43.1271H156.757V43.967C156.77 44.1977 156.734 44.4286 156.65 44.6441C156.566 44.8596 156.437 45.0546 156.271 45.216C156.115 45.3598 155.932 45.4714 155.732 45.5445C155.494 45.6195 155.244 45.6559 154.994 45.6521C154.531 45.6681 154.079 45.5106 153.727 45.2107C153.557 45.0529 153.424 44.8596 153.338 44.6447C153.251 44.4297 153.213 44.1983 153.226 43.967V41.9426H152.347V41.0273H154.401Z" fill="#051942"/>
</svg>
